<svg width="32" height="32" viewBox="0 0 32 32" fill="none" xmlns="http://www.w3.org/2000/svg">
<path d="M16 24C21.3333 24 22.6667 18.6667 22.6667 18.6667H9.33333C9.33333 18.6667 10.6667 24 16 24Z" fill="#FFC300"/>
<path d="M16 2.66669C8.648 2.66669 2.66667 8.64802 2.66667 16C2.66667 23.352 8.648 29.3334 16 29.3334C23.352 29.3334 29.3333 23.352 29.3333 16C29.3333 8.64802 23.352 2.66669 16 2.66669ZM16 26.6667C10.1187 26.6667 5.33333 21.8814 5.33333 16C5.33333 10.1187 10.1187 5.33335 16 5.33335C21.8813 5.33335 26.6667 10.1187 26.6667 16C26.6667 21.8814 21.8813 26.6667 16 26.6667Z" fill="#FFC300"/>
<path d="M17.3333 16L20 16.016C20.016 15.4 20.2587 14.6667 21.3333 14.6667C22.408 14.6667 22.6507 15.4 22.6667 16H25.3333C25.3333 14.392 24.268 12 21.3333 12C18.3987 12 17.3333 14.392 17.3333 16ZM10.6667 14.6667C11.7413 14.6667 11.984 15.4 12 16H14.6667C14.6667 14.392 13.6013 12 10.6667 12C7.732 12 6.66667 14.392 6.66667 16L9.33333 16.016C9.34933 15.4 9.592 14.6667 10.6667 14.6667Z" fill="#FFC300"/>
</svg>
