<svg width="32" height="32" viewBox="0 0 32 32" fill="none" xmlns="http://www.w3.org/2000/svg">
<path d="M5.33334 20V25.3334H26.6693L26.6667 20H5.33334ZM21.3333 24H18.6667V21.3334H21.3333V24ZM25.3333 24H22.6667V21.3334H25.3333V24ZM5.33334 6.66669V12H26.6693L26.6667 6.66669H5.33334ZM21.3333 10.6667H18.6667V8.00002H21.3333V10.6667ZM25.3333 10.6667H22.6667V8.00002H25.3333V10.6667Z" fill="#FFC300"/>
<path d="M26.6667 4H5.33333C3.86266 4 2.66666 5.196 2.66666 6.66667V12C2.66666 13.4707 3.86266 14.6667 5.33333 14.6667H26.6667C28.1373 14.6667 29.3333 13.4707 29.3333 12V6.66667C29.3333 5.196 28.1373 4 26.6667 4ZM5.33333 12V6.66667H26.6667L26.6693 12H5.33333ZM26.6667 17.3333H5.33333C3.86266 17.3333 2.66666 18.5293 2.66666 20V25.3333C2.66666 26.804 3.86266 28 5.33333 28H26.6667C28.1373 28 29.3333 26.804 29.3333 25.3333V20C29.3333 18.5293 28.1373 17.3333 26.6667 17.3333ZM5.33333 25.3333V20H26.6667L26.6693 25.3333H5.33333Z" fill="#FFC300"/>
<path d="M22.6667 8H25.3333V10.6667H22.6667V8ZM18.6667 8H21.3333V10.6667H18.6667V8ZM22.6667 21.3333H25.3333V24H22.6667V21.3333ZM18.6667 21.3333H21.3333V24H18.6667V21.3333Z" fill="#FFC300"/>
</svg>
