<svg width="32" height="32" viewBox="0 0 32 32" fill="none" xmlns="http://www.w3.org/2000/svg">
<path d="M13.3333 24C15.7947 24 18.0573 23.1534 19.8627 21.7494L25.724 27.6107L27.6093 25.7254L21.748 19.864C23.1533 18.0574 24 15.7947 24 13.3334C24 7.45202 19.2147 2.66669 13.3333 2.66669C7.452 2.66669 2.66667 7.45202 2.66667 13.3334C2.66667 19.2147 7.452 24 13.3333 24ZM13.3333 5.33335C17.7453 5.33335 21.3333 8.92135 21.3333 13.3334C21.3333 17.7454 17.7453 21.3334 13.3333 21.3334C8.92133 21.3334 5.33333 17.7454 5.33333 13.3334C5.33333 8.92135 8.92133 5.33335 13.3333 5.33335Z" fill="#FFC300"/>
<path d="M15.216 11.448C15.7213 11.9547 16 12.624 16 13.3333H18.6667C18.6667 11.9133 18.112 10.5747 17.1013 9.56266C15.0827 7.54666 11.5827 7.54666 9.56534 9.56266L11.448 11.4507C12.4613 10.44 14.208 10.4427 15.216 11.448Z" fill="#FFC300"/>
</svg>
